# xmcd
#
# Track frame offsets: 
#        150
#        11482
#        15047
#        30743
#        46770
#        55933
#        66445
#        80709
#        92782
#        105051
#        119409
#        133076
#        146630
#        157807
#        171182
#        182874
#        199174
#        213241
#        231961
#        243313
#        253420
#        261449
#        269920
#        287506
#        296481
#        308454
#
# Disc length: 4319 seconds
#
# Revision: 1
# Processed by: cddbd v1.5.2PL0 Copyright (c) Steve Scherf et al.
# Submitted via: ExactAudioCopy v1.3
#
DISCID=7610dd1a
DTITLE=Various Artist - Louisiana Hayride_CD06
DYEAR=2017
DGENRE=Country
TTITLE0=Werly Fairburn - Everybody's Rocking
TTITLE1=Outro and theme
TTITLE2=Jack Ford - Since I Met You Baby (& Intro Logan)
TTITLE3=Betty Amos - I Dreamed
TTITLE4=The Geezinslaw Brothers - Billboard Song
TTITLE5=The Geezinslaw Brothers - Singin' The Blues
TTITLE6=Jeanette Hicks and James O'Gwynn - Yearning
TTITLE7=Rusty and Lita Carson - I'm Tired
TTITLE8=Werly Fairburn - My Heart's On Fire
TTITLE9=Werly Fairburn - Speak To Me Baby
TTITLE10=Bob Gallion - We'll Never Say Goodbye, Just So Long
TTITLE11=Bob Gallion - Hey Mr. Bartender
TTITLE12=Tibby Edwards - Walking And Crying With The Blues
TTITLE13=Johnny Mathis - Live And Let Live
TTITLE14=King Sterling - What Will Your Answer Be?
TTITLE15=Jack Ford - You're Still Mine
TTITLE16=Jack Ford - Not Sure Of You
TTITLE17=James O'Gwynn - Playing Dominoes And Shooting Dice
TTITLE18=Wesly Fairburn - I Guess I'm Crazy
TTITLE19=Jimmy and Johnny - Sweet Love On My Mind
TTITLE20=Johnny Horton - I'm Coming Home
TTITLE21=Johnny Horton - Not Like I Did Before
TTITLE22=Bob Gallion - You Gotta Have A Heartbreak (& Outro)
TTITLE23=The Jordanaires - Working On A Building
TTITLE24=Elvis Presley - Heartbreak Hotel
TTITLE25=Elvis Presley - I Was The One
EXTD=
EXTT0=
EXTT1=
EXTT2=
EXTT3=
EXTT4=
EXTT5=
EXTT6=
EXTT7=
EXTT8=
EXTT9=
EXTT10=
EXTT11=
EXTT12=
EXTT13=
EXTT14=
EXTT15=
EXTT16=
EXTT17=
EXTT18=
EXTT19=
EXTT20=
EXTT21=
EXTT22=
EXTT23=
EXTT24=
EXTT25=
PLAYORDER=
